<?xml version="1.0" encoding="UTF-8"?>
<svg xmlns="http://www.w3.org/2000/svg" version="1.1" viewBox="0 0 646.5 117.8">
  <defs>
    <style>
      .cls-1, .cls-2 {
        isolation: isolate;
      }

      .cls-2 {
        fill: #591202;
        mix-blend-mode: multiply;
        stroke-width: 0px;
      }
    </style>
  </defs>
  <g class="cls-1">
    <g id="Calque_1" data-name="Calque 1">
      <g>
        <path class="cls-2" d="M567.4,42.7c-2.1.3-4.2.8-6.2.9-3.9,0-7.8,0-11.7-.3-2-.1-4.6,0-5.9-1.2-1.9-1.8-3.9-1.4-5.9-1.6-1.2-.1-2.4-.4-3.9-.6,1.1-2.2,2.6-2.8,4.4-2.9,1.4-.1,2.7-.6,4-1,1.3-.4,2.6-1.1,4-1.2,4.1-.3,8.3-.4,12.5-.6-.3-.4-.6-.5-.9-.6-5.5-.2-11.1-.5-16.7-.6-1.4,0-2.7,0-4-1-2.6-1.7-5.5-2-8.6-2.2-3-.1-6.1,0-8.8-1.8-.5-.3-1.3-.2-1.9-.2-1.8,0-3.7-.2-5.6-.1-1.6,0-2.9-.1-4.1-1.4-.6-.7-1.9-1.2-2.9-1.2-9.3-.4-18.7-.6-28.1-.9-1.8,0-3.8.5-6.1-.9,1.4-.3,2.2-.5,3-.6,10.1-.4,20.2-.7,30.4-1.1,2.1,0,4.1-.4,6.2-.7,1.4-.2,2.8-.6,4.2-.7,4.3-.3,8.7-.6,13-.9.6,0,1.2-.3,1.9-.4-3.1-.9-6.3,0-9.8-1,2-1.2,4.3.3,5.4-2.2-.8-.2-1.3-.4-1.8-.4-9.9-.1-19.9-.2-29.8-.4-14.5-.3-29-.8-43.5-1.2-9.6-.3-19.2-.7-28.8-.9-13.4-.2-26.8-.3-40.2-.5-1.4,0-2.7-.3-4-.4,0-1.8.7-2.6,2.2-2.5,1.7.2,3.3.5,4.9.7.8.1,1.9.4,2.4,0,1.9-1.3,3.9-1,5.9-.9,2.9.1,5.8.8,8.5-1,.4-.3,1-.2,1.6-.3,3.1-.3,6.2-.6,9.5-.9-.2-.2-.7-.4-.8-.8-.3-.8-.1-2-.6-2.3-.7-.5-1.8-.4-2.8-.4-5.7,0-11.3,0-17,0-12.1-.1-24.2-.4-36.3-.5-14.5-.2-29-.1-43.5-.4-5.9,0-11.7-.8-17.6-1-5.4-.1-10.9,0-16.3.1-6.3,0-12.6.3-18.8.3-6.1,0-12.2,0-18.3,0-6.1,0-12.2.4-18.2.5-6.2.1-12.4.1-18.6.1-7.7,0-15.4,0-23.2-.2-.2,0-.4-.4-.8-.8,1.2-.4,2.3-.8,3.4-1.1-1.4-.5-2.7-.6-4-.5-2,0-4,.6-5.9.1-3.6-.9-7.2-.3-10.7.2-5.4.8-10.8.7-16.3.8-2.3,0-4.7.4-6.8-.2-2.3-.6-4.5-.4-6.8-.3-5,.3-10,1-15,1.1-10,.1-19.8,1.3-29.6,2.7-12.6,1.8-25.2,3.8-37.9,5.7-9.3,1.4-18.5,2.9-27.2,6.7-.7.3-1.5.6-2.9,1.2,2.8.6,5.2-.5,7.5,1.7-4.3.7-8.1,1.1-11.5,2.8.4,1.1.8,2,1.1,2.7,1.1,0,1.9.1,2.8.2-2.9,2.2-6.7,2.7-8.1,6.4,1.8,2.2,1.8,2.2,4.5.8.7-.4,1.6-.4,2.7-.7-.6,1.5-1,2.6-1.4,3.8,1.6.6,2.9,1.4,4.4,1.7,1.5.3,3.1.2,5,.2-2.5,2.3-4.8,3.7-6.8,4.2-1.9.5-3.5,1.4-5,3,3.2.5,6-1,8.8.6-5,.7-10,1.5-15.5,2.3.8.7,1.1,1,1.5,1.2,4.7,1.9,9.6,1.6,14.5,1.2,1.2,0,2.5-.2,3.7-.4,1.2-.2,2.4-.8,3.6-1.1,1.8-.4,3.5-.3,5.7,1-3.1.7-5.5,1.4-7.9,1.9-5.9,1-5.9,1-7,2.3,1,.3,1.9.5,3.2.8-.8.6-1.3,1-1.8,1.4.9.6,1.7,1.2,2.8,1.9-2.5,2.5-5.6.7-8,2.3,3.4.6,6.8,1.1,10.2,1.4,3.4.2,6.7.3,10.1.4-2,1.5-4.1,2.3-6.4,2.1-2.6-.3-5.2-.6-7.8-.8-.5,0-1.1.2-1.6.3,0,.2,0,.5,0,.7,5.8.8,11.6,1.6,17.4,2.3.9.1,1.9,0,2.6.3,3,1.6,6.3,1.8,9.6,1.6,8.5-.5,17-1.1,25.4-1.7h0c.1,1-.5,1.3-1.3,1.4-1.6.2-3.3.3-4.9.5-2.3.3-4.6.6-6.2,2.9,4.7,0,9.2,0,13.8.9-.5.7-1,1.3-1.6,1.4-1.9.2-3.9.4-5.8.4-2,0-3.9-.3-5.9-.2-4.6.2-9.1.6-13.7.9-9.2.6-18.5,1.3-27.7,1.9-.9,0-1.9,0-2.5.6-2.2,1.9-4.9,1.8-7.4,2.1-2,.3-4.1,0-6.2.2-2.8.2-5.5.5-8.5.8,1.7,2.8,4.1,2.9,6.5,3,5.4.3,10.9.7,16.3,1,4,.3,8,.7,12,1.1.4,0,.7.5,1.4,1.1-4.5.3-8.4.6-12.3.8-3.8.2-7.7.3-11.5.4,2.6.7,5.3.7,7.9,1,2.6.3,5.3-.6,8.6,1.1-2.8.4-4.9.7-7,.9,2.1.9,4.5-.2,6.7,1.6-2.6.8-4.9,0-7.5,1.4,12.6.9,24.6,1.6,36.4,3.5-3.1.5-6.1,1-9.2,1-4.5,0-8.9-.6-13.4-.9-1.4,0-2.8,0-4.2,0,0,.3,0,.5,0,.8,3.3.3,6.6.8,9.9,1,7.8.6,15.7,1,23.5,1.6,11.5.9,23,2.2,34.5,2.9,11,.7,22,1,33,1.4,5.2.2,10.5.2,15.7.2,9.5,0,19,0,28.5,0,1.8,0,3.5-.2,5.2-.3-.3-.6-.6-.8-.9-.8-6.3-.2-12.7-.3-19-.4-1.2,0-2.4,0-3.6-.3-.5-.1-.9-.9-1.8-1.7,3.1-.9,5.7-.7,8.3-.7,11.6,0,23.1-.3,34.7-.4,14.5-.1,29-.2,43.5-.3,15-.2,30.1-.5,45.2-.7,12.9-.2,25.8-.2,38.6-.5,7.1-.1,14.1.3,21.2-.6,5.1-.7,10.4,0,15.6,0,6.7,0,13.3,0,20,0,.4,0,.9.2,1.3.3-3.3,0-5,1.6-5.2,4.5-4,0-7.8,0-11.6,0-9.5.2-19,.2-28.4.7-10.1.5-20.2,1.1-30.4.8-2.1,0-4.2.2-6.3.3.6.8,1.3,1.1,2,1.1,3,0,5.9,0,8.8,0,16.1,0,32.3-.2,48.4-.2s15.7.5,23.5.4c5.3,0,10.7.6,16-.8.5-.1,1.3-.2,1.5,0,1.3,1.6,3,1.1,4.5.8,3.3-.8,6.5-1.7,9.9-1.7s.7-.4,1.7-1h-2.4c-7.2,0-14.4,0-21.6,0-.8,0-1.7.1-2.2-.2-2.3-1.3-4.5-2.8-7.2-4.6,1.2-.2,1.8-.4,2.3-.4,7.5-.2,15-.3,22.5-.4,4.2,0,8.5-.2,12.8-.1,1.2,0,2.5.3,4,.5,1.3-.2,2.9-.7,4.6-.8,10.5-.6,20.9-1,31.4-1.6,11.3-.6,22.6-1.4,34-2.1,3.7-.2,7.4-.4,11.1-.6,0-.2,0-.3,0-.5-1-.2-1.9-.3-2.9-.5,2-1,4-1.5,6-1.9,2.2-.4,4.5-.8,6.8-1.2,2.1-.3,4.2-.7,6.3-1-1.5-.9-3.3,0-5.1-2,5.9-1.9,11.9-.8,17.4-2.6-2.7-.9-5.7.3-8.4-1.1.9-.7,1.9-1.4,3-1.5,4.6-.7,9.3-1.4,13.9-1.9,2.2-.2,3.7-1,4.1-3.2,5.6-.4,10.9-.7,16.3-1.1-2.1-.5-4.2-.6-6.3-.6-5.2,0-10.5,0-15.7.1-.6,0-1.2-.3-1.8-.4,0-.2,0-.5,0-.7,7.5-.6,15-1.2,22.5-1.8,0-.2,0-.4,0-.7-1.1,0-2.2-.2-3.4-.2-4.5,0-8.9,0-13.4,0-4.6,0-9.1.2-13.7,0-4-.1-8-.6-12-.7-4.1-.1-8.3,0-12.4,0-2.3,0-4.6,0-6.9,0-1,0-1.7-.4-1.5-1.8,5.2-1.8,10.9-.3,17-1.9-5.2-.5-9.8.2-14.6-.5.6-1.2,1-2,1.5-2.9-8.5.5-10,.4-11.4-1.6,1-.2,1.8-.4,2.6-.5,4.2-.4,8.5-.8,12.7-1.2,2.4-.3,4.8-1.4,7.2.1.1,0,.5,0,.6,0,1.3-2.1,3.5-1,5.3-1.5,1.6-.5,3.5-.3,5.1-1.9-6.7.5-13,1-19.5.8,0-2,1.3-2.4,2.4-2.7,1.2-.3,2.4-.4,3.6-.5,5.2-.5,10.4-.8,15.6-1.3,4.1-.4,8.3-1.3,12.4-1,5.9.4,11.8-.5,17.6-.8.7,0,1.3-.4,1.9-.5-1.4-.4-2.7-.5-4-.4-7.4.6-14.8.6-22-1.4-.7-.2-1.5-.2-2.4-.3.3-.5.4-.8.5-.8,4.8-2.1,10.1-.7,15-2.1.5-.2,1.1.1,1.6.1,2.1,0,4.3.3,6.1-.4,4.1-1.6,8.4-.9,12.6-1.5.3,0,.7.1,1,0,.8-.4,2-.6,2.4-1.3.9-1.2,1.9-1.8,3.3-2.1-2.7.1-5.4.3-8.2.4.3.6.5,1,.8,1.7ZM16.9,81.9H6.2c1.8-1.6,3.7-.9,5.4-1,1.8,0,3.6,0,5.4,0,0,.3,0,.7,0,1ZM78.1,67.3c3.5-.2,6.9-.3,10.4-.5-2.3,1.8-7.7,1.8-10.4.5Z"/>
        <path class="cls-2" d="M435.8,9.5c6.6-.3,13.2-1,19.9-1.1,7.8,0,15.7.3,23.5.5.2,0,.4.2.6.3,0,.5-.1,1-.2,1.9,1,0,1.9-.2,2.9-.2,1.5,0,3-.1,4.5,0,1.2,0,2.3.2,3.5.2,5.3-.1,10.7-.4,16-.5,8.8-.2,17.6-.2,26.5-.4,3.9,0,7.8-.3,11.7-.3,2.6,0,5.2.5,7.8.3,2.2-.1,4.4-.8,6.6-1.2-.3-.5-.6-.7-.9-.7-11.2-.6-22.4-1.2-33.6-1.9-1.3,0-2.8.3-4-1,2.1-.5,4.1-.9,6.1-1.3h0c0-.2,0-.5,0-.7-14.7-1-29.3.7-44,.5-14.6-.2-29.1-.4-43.7-.6,0,.2,0,.5,0,.8,6.8.4,13.7.7,20.5,1.2,6.7.5,13.5,0,20.1,1.4-.3.4-.6.6-.9.6-5,.2-10,.5-15,.4-11.8-.3-23.5-.8-35.3-1.1-.7,0-1.8,0-2.1.4-1,1.6-2.6,1.4-4.1,1.5-2.9.3-5.7.6-8.6,1,1,.6,2,.9,3.1.9,6.4-.2,12.8-.3,19.1-.6Z"/>
        <polygon class="cls-2" points="527.6 98.2 527.6 98.2 527.6 98.2 527.6 98.2"/>
        <path class="cls-2" d="M518.1,99.4c-2.5.3-5,.3-7.5.4-11.5.8-23,.9-34.5,2.6-5.5.8-11.1.9-16.6,1.4-2.8.2-5.6.7-8.5,1,0,.3,0,.6.1.8,5.3-.4,10.5-.9,15.8-1.3,1.2-.1,2.4-.3,3.6-.3,3.7,0,7.3.3,11,.1,3.7-.2,7.3-.8,11-1.1,4.4-.5,8.8-.8,13.2-1.3,6.3-.7,12.5-1.6,18.7-2.4,1-.1,2-.7,3-1,0,0-.1-.2-.2-.2-3.1.5-6.2,1.1-9.3,1.4Z"/>
        <polygon class="cls-2" points="640.1 96.9 640.1 96.8 640.1 96.8 640.1 96.9"/>
        <path class="cls-2" d="M637,92.4c-1.2.3-2.6-.5-4-.8-.5,0-1-.2-1.5,0-1.4.3-2.7.6-4.2,1-.3,1-.4,2.1,1.2,2.7,1.6.6,3.1,1.2,4.9,2,1.3-1.5,2.9-2.2,4.8-.4.3.3,1.2,0,1.9,0-.2-1-.4-1.6-.5-2.3-.2-1.5-.5-2.6-2.6-2.1Z"/>
        <path class="cls-2" d="M186.3,103.7c.5,0,1,0,1.5,0,4.5-.2,8.9-.5,13.4-.5,6.6-.1,13.2,0,19.9,0,2.2,0,4.3.2,6.5.3,1.5,0,3,.2,4.4-.8-15.2,0-30.5-.9-45.6,1Z"/>
        <path class="cls-2" d="M186.3,103.7s0,0,0,0c0,0,0,0,0,0h0Z"/>
        <path class="cls-2" d="M589.3,92.2c.2.7.4,1.3.4,1.6h0c1.3.5,2.6.5,3.3,1.2,1.2,1,2.1.5,3.1.4.2-.8.3-1.3.5-2.7,1,2.6,2.3,3.3,4.1,2.5-.9-3.5-6-4.9-11.5-2.9Z"/>
        <path class="cls-2" d="M434.7,105c-4.5.7-9,1.2-13.5,1.9h0s0,.4,0,.4h17.8c-1.3-1.8-2.4-2.6-4.3-2.3Z"/>
        <path class="cls-2" d="M553.9,90.7h0s0,0,0,0c0,0,0,0,0,0Z"/>
        <path class="cls-2" d="M553.9,90.7s0,0,0,0h0s0,0,0,0Z"/>
        <path class="cls-2" d="M553.9,90.7c0,.4,0,.8.1.9-1.5,0-2.8.3-4.1.2-.4,0-.8-.6-1.3-1h-3.4c.8.5,1.3.6,1.6,1,2.1,2.5,4.9,1.6,7.5,1.5,1.2,0,1.6-1,1.2-2.1-.3-1-.9-.9-1.6-.4Z"/>
        <path class="cls-2" d="M235.8,103.5c4.7.1,9.3.7,14.2-.9h-14.2c0,.3,0,.6,0,.9Z"/>
        <path class="cls-2" d="M550.2,90.6c1.3-1,2.4-.3,3.6,0-.1-2.6-2.4-2-3.9-2.5-.5-.2-1.6.3-1.8.7-.2.4.3,1.2.6,1.8.5,0,1.2.2,1.5,0Z"/>
        <path class="cls-2" d="M553.9,90.6s0,0-.1,0c0,0,0,0,0,.2h.1Z"/>
        <path class="cls-2" d="M548.7,90.7s0,0,0,0c0,0,0,0,0,0h0s0,0,0,0c0,0,0,0,0,0h0s0,0,0,0h0Z"/>
        <path class="cls-2" d="M518.9,93.3c0-.2,0-.5,0-.7-2.8.1-5.7-.4-8.5.5,0,.3,0,.6,0,.8,2.8-.2,5.7-.4,8.5-.7h0Z"/>
        <path class="cls-2" d="M280.4,103.5c1.3,0,2.7-.1,4-.2,0-.3,0-.6,0-.9-1.4,0-2.8.2-4.1.3,0,.3,0,.5,0,.8Z"/>
        <path class="cls-2" d="M542,31.4h4v-.7c-1.2-.2-2.5-.6-4,.7Z"/>
        <path class="cls-2" d="M458,106.8c-1.4.1-2.9.3-4.8.5,2.4.2,4,0,4.8-.5Z"/>
        <path class="cls-2" d="M491.3,116.6c.3.5.8.9,1.3,1.2.1,0,.6-.6,1.1-1.1-.7-.5-1.1-1-1.6-1-.3,0-1,.9-.9,1Z"/>
        <path class="cls-2" d="M644.7,72.3c-.3.2-.5.6-.7,1,.1.1.2.2.3.4.5-.3,1-.6,2.2-1.2-1.2,0-1.6-.2-1.8,0Z"/>
        <path class="cls-2" d="M563.9,41.4h0c0-.2-.1-.3-.2-.5-.8,0-1.6.2-2.4.2,0,.1,0,.2,0,.3h2.5Z"/>
        <path class="cls-2" d="M276.3,103.3v.2h1.5c0-.1,0-.2-.1-.3-.5,0-.9,0-1.4,0Z"/>
      </g>
    </g>
  </g>
</svg>