<?xml version="1.0" encoding="UTF-8"?><svg id="Calque_2" xmlns="http://www.w3.org/2000/svg" viewBox="0 0 646.55 117.77"><defs><style>.cls-1{fill:#591202;stroke-width:0px;}</style></defs><g id="Graphic_Elements"><path class="cls-1" d="M77.99,67.24c-8.48.58-16.95,1.26-25.44,1.71-3.25.17-6.53-.04-9.57-1.61-.72-.37-1.71-.23-2.57-.34-5.82-.78-11.63-1.56-17.44-2.35,0-.24-.01-.47-.02-.71.53-.12,1.08-.38,1.6-.34,2.6.22,5.18.52,7.78.8,2.34.25,4.39-.59,6.4-2.09-3.37-.12-6.74-.14-10.1-.38-3.43-.25-6.84-.73-10.25-1.38,2.38-1.52,5.52.23,8.03-2.26-1.03-.69-1.87-1.25-2.77-1.85.49-.38.96-.74,1.77-1.36-1.25-.32-2.19-.57-3.19-.83,1.12-1.36,1.13-1.31,7.02-2.34,2.43-.43,4.82-1.13,7.89-1.86-2.22-1.34-3.94-1.43-5.71-.99-1.23.31-2.4.84-3.64,1.09-1.2.25-2.44.33-3.67.41-4.9.31-9.81.66-14.52-1.25-.36-.15-.65-.5-1.5-1.19,5.56-.82,10.55-1.55,15.53-2.28-2.77-1.57-5.61-.1-8.81-.59,1.53-1.58,3.12-2.48,5-2.97q3.09-.82,6.85-4.25c-1.94-.06-3.53.09-5.02-.22-1.46-.3-2.82-1.07-4.39-1.7.45-1.21.84-2.29,1.41-3.82-1.16.29-2.03.34-2.73.7-2.66,1.37-2.64,1.41-4.47-.78,1.4-3.73,5.18-4.24,8.06-6.42-.86-.06-1.71-.13-2.77-.2-.3-.76-.65-1.65-1.07-2.71,3.44-1.73,7.28-2.14,11.55-2.82-2.37-2.22-4.78-1.07-7.53-1.7,1.37-.55,2.12-.83,2.86-1.15,8.69-3.8,17.94-5.32,27.21-6.73,12.62-1.92,25.22-3.92,37.86-5.68,9.82-1.37,19.67-2.56,29.62-2.71,5-.08,9.99-.79,15-1.1,2.24-.14,4.44-.32,6.75.3,2.12.58,4.51.25,6.78.21,5.43-.1,10.86.01,16.27-.82,3.5-.54,7.03-1.09,10.66-.19,1.83.46,3.9-.08,5.86-.13,1.27-.03,2.54,0,3.95.53-1.05.36-2.1.72-3.35,1.14.42.39.62.75.83.75,7.72.08,15.43.16,23.15.17,6.21,0,12.42,0,18.63-.12,6.08-.11,12.15-.43,18.23-.52,6.09-.1,12.18.01,18.28-.05,6.28-.07,12.56-.26,18.84-.35,5.45-.08,10.9-.25,16.34-.1,5.88.16,11.74.87,17.61.96,14.51.24,29.02.22,43.53.38,12.11.13,24.22.38,36.32.53,5.67.07,11.34.03,17.02.08.95,0,2.08-.07,2.79.4.49.32.34,1.53.6,2.31.1.32.52.53.77.76-3.2.29-6.32.57-9.45.87-.54.05-1.18.02-1.58.3-2.68,1.84-5.61,1.14-8.51,1.02-1.98-.09-4-.35-5.86.92-.54.37-1.59.08-2.39-.02-1.64-.21-3.27-.55-4.92-.73-1.5-.16-2.2.65-2.17,2.47,1.33.14,2.69.38,4.05.4,13.41.17,26.83.23,40.24.48,9.59.18,19.18.61,28.76.88,14.49.41,28.99.85,43.48,1.17,9.92.22,19.85.25,29.78.39.49,0,.98.2,1.79.38-1.18,2.51-3.49,1.03-5.44,2.24,3.48,1.1,6.68.14,9.8,1.01-.62.14-1.23.36-1.86.41-4.34.32-8.69.58-13.03.92-1.4.11-2.78.48-4.17.67-2.05.28-4.09.64-6.15.73-10.12.41-20.25.73-30.37,1.12-.83.03-1.65.31-3.03.58,2.29,1.4,4.25.82,6.08.88,9.36.34,18.72.55,28.07.91.99.04,2.22.52,2.87,1.23,1.19,1.28,2.48,1.46,4.07,1.39,1.85-.09,3.71.05,5.56.12.65.02,1.45-.11,1.93.21,2.71,1.82,5.84,1.64,8.82,1.76,3.09.12,6.05.46,8.64,2.16,1.31.86,2.59.91,4.02.95,5.56.17,11.11.42,16.66.65.3.01.59.14.88.56-4.16.18-8.32.28-12.47.59-1.34.1-2.62.79-3.95,1.16-1.32.37-2.65.86-4.01.96-1.88.15-3.33.73-4.44,2.94,1.47.22,2.69.44,3.91.58,2.03.25,3.98-.14,5.91,1.62,1.28,1.17,3.9,1.04,5.93,1.17,3.88.23,7.77.34,11.65.26,2.02-.04,4.03-.57,6.18-.89-.34-.72-.55-1.15-.82-1.72,2.82-.16,5.53-.3,8.23-.45-1.4.23-2.47.81-3.33,2.06-.47.68-1.57.94-2.42,1.31-.27.12-.65-.04-.97.01-4.17.61-8.45-.14-12.57,1.47-1.82.71-4.07.35-6.13.43-.54.02-1.13-.26-1.62-.11-4.91,1.42-10.22.01-15.02,2.12-.16.07-.23.34-.53.82.89.12,1.69.13,2.43.34,7.23,2.06,14.58,1.99,21.98,1.43,1.3-.1,2.61-.01,4,.4-.65.18-1.28.5-1.94.53-5.86.28-11.67,1.21-17.61.82-4.08-.27-8.23.68-12.36,1.04-5.21.45-10.42.84-15.63,1.29-1.19.1-2.4.2-3.56.5-1.12.29-2.31.71-2.38,2.7,6.45.2,12.77-.26,19.5-.81-1.65,1.64-3.5,1.45-5.12,1.9-1.75.5-3.97-.58-5.27,1.54-.06.1-.44.12-.57.04-2.4-1.54-4.81-.39-7.24-.13-4.23.45-8.47.8-12.7,1.22-.81.08-1.61.28-2.58.45,1.48,1.96,2.91,2.13,11.43,1.6-.46.87-.86,1.63-1.5,2.85,4.82.7,9.36,0,14.59.54-6.06,1.56-11.76.04-16.96,1.87-.26,1.44.44,1.79,1.45,1.81,2.29.04,4.58.1,6.87.09,4.14-.01,8.29-.19,12.44-.07,4.02.11,8.02.62,12.04.73,4.57.11,9.14-.04,13.71-.07,4.47-.03,8.94-.08,13.41-.08,1.12,0,2.25.16,3.37.25,0,.22-.01.44-.02.65-7.51.59-15.02,1.18-22.54,1.76-.03.23-.06.46-.1.68.59.15,1.18.44,1.76.44,5.23-.01,10.46-.09,15.7-.11,2.12,0,4.24.1,6.35.61-5.36.36-10.71.72-16.3,1.09-.36,2.2-1.92,2.94-4.08,3.18-4.65.52-9.29,1.2-13.91,1.94-1.06.17-2.04.82-2.98,1.55,2.75,1.42,5.67.22,8.4,1.13-5.45,1.82-11.43.7-17.37,2.64,1.78,1.99,3.57,1.09,5.1,1.98-2.1.33-4.19.65-6.28,1-2.25.38-4.51.78-6.75,1.21-2.02.39-4.02.85-5.99,1.86.98.16,1.96.33,2.93.49,0,.17,0,.34.02.51-3.71.2-7.42.39-11.12.62-11.32.69-22.64,1.45-33.96,2.09-10.46.59-20.92,1.04-31.38,1.63-1.68.1-3.34.59-4.61.83-1.54-.22-2.77-.55-4-.55-4.25-.01-8.5.08-12.75.15-7.49.12-14.98.25-22.47.4-.58.01-1.16.2-2.34.43,2.76,1.79,4.93,3.29,7.21,4.63.58.34,1.48.2,2.23.2,7.2.01,14.4,0,21.6,0h2.36c-.98.6-1.34,1-1.7,1-3.4,0-6.63.88-9.89,1.7-1.56.39-3.21.82-4.54-.76-.23-.27-1.02-.21-1.5-.09-5.26,1.4-10.64.74-15.96.82-7.84.11-15.7-.36-23.54-.36-16.14,0-32.28.13-48.41.2-2.94.01-5.89,0-8.84-.06-.68-.02-1.34-.3-1.98-1.09,2.12-.11,4.24-.36,6.34-.3,10.14.31,20.24-.29,30.36-.75,9.46-.43,18.94-.5,28.42-.68,3.78-.07,7.56-.01,11.58-.01.19-2.98,1.93-4.53,5.23-4.54-.43-.1-.86-.28-1.3-.29-6.65-.03-13.3-.03-19.96-.06-5.22-.03-10.52-.69-15.65-.02-7.09.94-14.14.5-21.2.64-12.87.25-25.75.27-38.62.45-15.05.2-30.11.52-45.16.7-14.5.17-29.01.21-43.51.34-11.56.1-23.13.28-34.69.38-2.58.02-5.16-.18-8.28.68.82.8,1.22,1.53,1.76,1.66,1.15.27,2.37.29,3.56.32,6.32.15,12.65.27,18.98.42.29,0,.57.19.88.79-1.75.11-3.49.32-5.24.33-9.48.06-18.97.08-28.45.08-5.23,0-10.46.04-15.69-.15-11-.38-22.01-.7-33-1.41-11.53-.75-23.02-1.99-34.54-2.91-7.83-.63-15.67-1.04-23.5-1.62-3.32-.24-6.62-.67-9.93-1.01,0-.27,0-.54.01-.82,1.41-.03,2.84-.16,4.24-.08,4.46.28,8.9.81,13.36.9,3.05.06,6.12-.47,9.2-.99-11.86-1.88-23.83-2.56-36.45-3.45,2.62-1.41,4.99-.53,7.55-1.37-2.21-1.78-4.57-.69-6.66-1.56,2.08-.28,4.16-.56,6.98-.94-3.23-1.64-5.98-.74-8.57-1.06-2.61-.32-5.28-.27-7.92-.98,3.82-.12,7.65-.2,11.47-.38,3.91-.19,7.81-.47,12.26-.75-.74-.57-1.07-1.04-1.44-1.08-4-.4-8-.77-12.01-1.06-5.43-.39-10.86-.71-16.29-1.05-2.37-.15-4.76-.24-6.47-3.03,2.98-.28,5.72-.59,8.48-.78,2.06-.14,4.16.06,6.2-.22,2.54-.34,5.24-.2,7.43-2.09.57-.49,1.64-.51,2.49-.57,9.24-.66,18.48-1.28,27.73-1.92,4.56-.32,9.12-.71,13.69-.93,1.95-.1,3.91.21,5.86.2,1.95-.02,3.91-.13,5.85-.37.6-.07,1.12-.68,1.61-1.39-4.54-.93-9.04-.99-13.77-.95,1.58-2.3,3.92-2.58,6.22-2.91,1.62-.23,3.25-.33,4.88-.51.85-.09,1.46-.44,1.32-1.44,2.67,1.32,8.17,1.29,10.46-.49-3.48.17-6.97.34-10.45.52ZM108.55,42.92c0,.33.01.66.02.99,8.47.84,16.97.14,25.66.31-.43-1.96-1.28-2.69-3.04-2.44-1.94.27-3.9.48-5.86.49-4.44.04-8.85,1.29-13.33.12-1.03-.27-2.29.33-3.44.53ZM153.08,46.18c0-.3,0-.6,0-.9-3.38-.68-6.75-1.38-10.13-2.01-.51-.1-1.14-.03-1.59.21-.41.22-.78.73-.9,1.18-.07.28.28.81.59,1.01.54.35,1.18.75,1.78.75,3.42-.02,6.83-.15,10.24-.25ZM16.93,81.86c0-.33.02-.66.02-.99-1.8,0-3.6-.08-5.4.02-1.69.1-3.57-.67-5.37.97h10.74Z"/><path class="cls-1" d="M526.66,3.9c-1.98.42-3.97.85-6.1,1.3,1.16,1.39,2.67.96,3.98,1.04,11.21.65,22.42,1.24,33.63,1.86.28.02.56.18.9.73-2.19.42-4.36,1.08-6.56,1.19-2.59.14-5.21-.31-7.81-.31-3.91.01-7.82.23-11.73.3-8.82.15-17.65.22-26.47.4-5.33.11-10.66.38-15.99.53-1.16.03-2.33-.21-3.5-.22-1.51-.02-3.02.03-4.53.08-.92.04-1.84.15-2.86.23.1-.86.16-1.36.22-1.85-.26-.12-.44-.27-.64-.28-7.85-.2-15.7-.59-23.54-.51-6.62.07-13.24.77-19.86,1.07-6.37.28-12.76.42-19.14.57-1.04.02-2.08-.24-3.09-.86,2.86-.31,5.72-.6,8.57-.95,1.46-.18,3.05.1,4.06-1.55.26-.42,1.37-.46,2.08-.44,11.77.37,23.54.86,35.31,1.13,5,.11,10.01-.22,15.01-.38.3,0,.6-.21.9-.58-6.64-1.44-13.43-.88-20.13-1.37-6.82-.5-13.64-.79-20.47-1.17,0-.25.02-.51.03-.76,14.58.19,29.15.42,43.72.57,14.66.16,29.31-1.49,43.98-.49,0,.24.01.48.02.71Z"/><path class="cls-1" d="M527.56,98.21c-.99.35-1.96.88-2.98,1.02-6.24.87-12.48,1.7-18.74,2.44-4.41.52-8.84.88-13.25,1.34-3.67.38-7.32.97-11,1.14-3.65.17-7.31-.11-10.97-.12-1.19,0-2.38.2-3.58.3-5.26.44-10.53.86-15.79,1.3-.03-.28-.06-.55-.1-.83,2.82-.35,5.63-.79,8.46-1.04,5.52-.49,11.1-.57,16.58-1.36,11.44-1.65,22.97-1.8,34.47-2.56,2.49-.17,4.99-.15,7.46-.44,3.11-.36,6.19-.93,9.28-1.42.05.08.1.16.16.24Z"/><path class="cls-1" d="M640.14,96.84c-.72,0-1.59.26-1.91-.04-1.88-1.78-3.44-1.14-4.75.39-1.75-.71-3.29-1.39-4.88-1.96-1.54-.55-1.47-1.63-1.18-2.65,1.47-.36,2.8-.73,4.15-1,.47-.1,1.01-.01,1.49.08,1.33.26,2.77,1.03,3.97.75,2.12-.5,2.4.57,2.62,2.1.1.7.29,1.38.49,2.34Z"/><path class="cls-1" d="M186.26,103.71c15.21-1.93,30.46-1.08,45.72-1.05-1.37.97-2.92.78-4.42.75-2.16-.04-4.32-.28-6.48-.29-6.62-.03-13.25-.05-19.87.05-4.45.07-8.9.35-13.35.53-.53.02-1.06,0-1.59,0Z"/><path class="cls-1" d="M589.72,93.72c-.06-.22-.25-.9-.43-1.57,5.48-1.95,10.59-.6,11.48,2.91-1.88.82-3.14.07-4.14-2.51-.28,1.38-.39,1.91-.55,2.71-.95.16-1.9.62-3.06-.38-.73-.63-1.94-.71-3.29-1.16Z"/><path class="cls-1" d="M421.22,106.86c4.5-.6,9.01-1.11,13.48-1.85,1.88-.31,3.01.44,4.32,2.26h-17.81c0-.14,0-.28,0-.42Z"/><path class="cls-1" d="M553.8,90.76c.71-.58,1.37-.73,1.72.33.37,1.12-.06,2.09-1.22,2.12-2.58.06-5.38.95-7.49-1.52-.3-.35-.82-.51-1.59-.97h3.46l-.08-.06c.44.37.86,1.03,1.33,1.06,1.32.08,2.65-.1,4.11-.18-.02-.11-.07-.5-.12-.89l-.11.12Z"/><path class="cls-1" d="M250,102.62c-4.83,1.61-9.5,1.05-14.17.91,0-.3,0-.6-.01-.91h14.18Z"/><path class="cls-1" d="M548.68,90.72c-.23-.64-.81-1.45-.6-1.86.24-.45,1.3-.87,1.81-.71,1.51.48,3.89-.14,3.91,2.61l.11-.12c-1.23-.27-2.42-1.13-3.74-.07-.33.27-1.04.07-1.58.09l.08.06Z"/><path class="cls-1" d="M518.93,93.31c-2.84.22-5.68.44-8.52.66-.02-.28-.04-.56-.06-.84,2.79-.92,5.68-.44,8.53-.55.02.24.04.49.06.74Z"/><path class="cls-1" d="M284.4,103.31c-1.35.07-2.7.14-4.04.21-.02-.27-.03-.55-.05-.82,1.38-.09,2.76-.18,4.14-.27-.02.29-.03.59-.05.88Z"/><path class="cls-1" d="M546.04,31.41h-4.03c1.55-1.24,2.8-.91,4.03-.68,0,.23,0,.46,0,.68Z"/><path class="cls-1" d="M453.12,107.26c1.95-.18,3.4-.32,4.84-.45q-1.21.73-4.84.45Z"/><path class="cls-1" d="M493.8,116.63c-.54.55-1.02,1.2-1.15,1.14-.52-.25-1.01-.67-1.31-1.15-.08-.13.6-1.03.88-1.01.47.04.89.54,1.58,1.02Z"/><path class="cls-1" d="M646.55,72.41c-1.2.66-1.72.95-2.23,1.23-.11-.12-.23-.25-.34-.37.24-.33.41-.76.73-.95.25-.15.68.01,1.84.09Z"/><path class="cls-1" d="M563.93,41.41h-2.48c-.01-.09-.03-.18-.04-.28.79-.08,1.57-.15,2.36-.23.05.17.11.34.16.5Z"/><path class="cls-1" d="M277.81,103.54h-1.53c0-.07,0-.13,0-.2.47-.03.94-.06,1.41-.09.04.1.08.19.12.28Z"/></g></svg>