<?xml version="1.0" encoding="UTF-8"?><svg xmlns="http://www.w3.org/2000/svg" viewBox="0 0 461.2 107.46"><defs><style>.cls-1{fill:#8c1c03;mix-blend-mode:multiply;stroke-width:0px;}.cls-2{isolation:isolate;}</style></defs><g class="cls-2"><g id="Calque_2"><g id="Background"><path class="cls-1" d="M62.58,67.24c-6.8.58-13.6,1.26-20.41,1.71-2.61.17-5.24-.04-7.68-1.61-.58-.37-1.37-.23-2.06-.34-4.67-.78-9.33-1.56-14-2.35,0-.24,0-.47-.01-.71.43-.12.87-.38,1.28-.34,2.08.22,4.16.52,6.24.8,1.88.25,3.52-.59,5.13-2.09-2.7-.12-5.41-.14-8.1-.38-2.75-.25-5.48-.73-8.23-1.38,1.91-1.52,4.43.23,6.45-2.26-.83-.69-1.5-1.25-2.22-1.85.4-.38.77-.74,1.42-1.36-1-.32-1.76-.57-2.56-.83.9-1.36.9-1.31,5.63-2.34,1.95-.43,3.87-1.13,6.33-1.86-1.78-1.34-3.16-1.43-4.58-.99-.99.31-1.93.84-2.92,1.09-.96.25-1.96.33-2.95.41-3.93.31-7.87.66-11.65-1.25-.29-.15-.52-.5-1.21-1.19,4.46-.82,8.46-1.55,12.46-2.28-2.22-1.57-4.5-.1-7.07-.59,1.23-1.58,2.51-2.48,4.01-2.97,2.48-.82,2.48-.83,5.5-4.25-1.55-.06-2.83.09-4.03-.22-1.17-.3-2.26-1.07-3.52-1.7.36-1.21.68-2.29,1.13-3.82-.93.29-1.63.34-2.19.7-2.13,1.37-2.12,1.41-3.59-.78,1.12-3.73,4.15-4.24,6.46-6.42-.69-.06-1.38-.13-2.23-.2-.24-.76-.52-1.65-.86-2.71,2.76-1.73,5.84-2.14,9.26-2.82-1.9-2.22-3.84-1.07-6.04-1.7,1.1-.55,1.7-.83,2.3-1.15,6.97-3.8,14.39-5.32,21.84-6.73,10.12-1.92,20.24-3.92,30.38-5.68,7.88-1.37,15.78-2.56,23.77-2.71,4.01-.08,8.02-.79,12.03-1.1,1.8-.14,3.56-.32,5.42.3,1.7.58,3.62.25,5.44.21,4.36-.1,8.71.01,13.05-.82,2.81-.54,5.64-1.09,8.55-.19,1.47.46,3.13-.08,4.7-.13,1.02-.03,2.04,0,3.17.53-.84.36-1.69.72-2.69,1.14.34.39.5.75.67.75,6.19.08,12.38.16,18.57.17,4.98,0,9.97,0,14.95-.12,4.88-.11,9.75-.43,14.63-.52,4.89-.1,9.78.01,14.66-.05,5.04-.07,10.08-.26,15.12-.35,4.37-.08,8.75-.25,13.11-.1,4.71.16,9.42.87,14.13.96,11.64.24,23.28.22,34.93.38,9.72.13,19.43.38,29.15.53,4.55.07,9.1.03,13.65.08.76,0,1.67-.07,2.24.4.39.32.28,1.53.48,2.31.08.32.42.53.62.76-2.57.29-5.07.57-7.58.87-.43.05-.94.02-1.27.3-2.15,1.84-4.5,1.14-6.83,1.02-1.59-.09-3.21-.35-4.7.92-.43.37-1.27.08-1.91-.02-1.32-.21-2.63-.55-3.95-.73-1.21-.16-1.77.65-1.74,2.47,1.06.14,2.16.38,3.25.4,10.76.17,21.53.23,32.29.48,7.7.18,15.39.61,23.08.88,11.63.41,23.26.85,34.89,1.17,7.96.22,15.93.25,23.89.39.39,0,.79.2,1.43.38-.95,2.51-2.8,1.03-4.37,2.24,2.8,1.1,5.36.14,7.86,1.01-.5.14-.99.36-1.49.41-3.48.32-6.97.58-10.45.92-1.12.11-2.23.48-3.35.67-1.64.28-3.28.64-4.94.73-8.12.41-16.25.73-24.37,1.12-.66.03-1.32.31-2.43.58,1.84,1.4,3.41.82,4.88.88,7.51.34,15.02.55,22.52.91.79.04,1.78.52,2.3,1.23.95,1.28,1.99,1.46,3.26,1.39,1.48-.09,2.97.05,4.46.12.52.02,1.17-.11,1.55.21,2.17,1.82,4.69,1.64,7.07,1.76,2.48.12,4.86.46,6.93,2.16,1.05.86,2.08.91,3.23.95,4.46.17,8.91.42,13.37.65.24.01.47.14.71.56-3.34.18-6.68.28-10.01.59-1.07.1-2.1.79-3.17,1.16-1.06.37-2.13.86-3.22.96-1.51.15-2.67.73-3.56,2.94,1.18.22,2.16.44,3.14.58,1.63.25,3.19-.14,4.74,1.62,1.03,1.17,3.13,1.04,4.76,1.17,3.11.23,6.23.34,9.35.26,1.62-.04,3.23-.57,4.96-.89-.28-.72-.44-1.15-.66-1.72,2.26-.16,4.43-.3,6.61-.45-1.13.23-1.98.81-2.67,2.06-.38.68-1.26.94-1.94,1.31-.22.12-.52-.04-.78.01-3.34.61-6.78-.14-10.09,1.47-1.46.71-3.27.35-4.92.43-.43.02-.91-.26-1.3-.11-3.94,1.42-8.2.01-12.06,2.12-.13.07-.18.34-.42.82.71.12,1.36.13,1.95.34,5.8,2.06,11.7,1.99,17.64,1.43,1.04-.1,2.09-.01,3.21.4-.52.18-1.03.5-1.56.53-4.71.28-9.36,1.21-14.13.82-3.27-.27-6.61.68-9.91,1.04-4.18.45-8.36.84-12.54,1.29-.96.1-1.93.2-2.85.5-.9.29-1.85.71-1.91,2.7,5.17.2,10.25-.26,15.64-.81-1.32,1.64-2.81,1.45-4.11,1.9-1.41.5-3.18-.58-4.23,1.54-.05.1-.35.12-.46.04-1.92-1.54-3.86-.39-5.81-.13-3.39.45-6.79.8-10.19,1.22-.65.08-1.29.28-2.07.45,1.19,1.96,2.33,2.13,9.17,1.6-.37.87-.69,1.63-1.2,2.85,3.87.7,7.51,0,11.71.54-4.86,1.56-9.43.04-13.61,1.87-.2,1.44.36,1.79,1.16,1.81,1.84.04,3.68.1,5.51.09,3.33-.01,6.65-.19,9.98-.07,3.22.11,6.44.62,9.66.73,3.66.11,7.33-.04,11-.07,3.59-.03,7.17-.08,10.76-.08.9,0,1.8.16,2.71.25,0,.22-.01.44-.02.65-6.03.59-12.06,1.18-18.08,1.76-.02.23-.05.46-.08.68.47.15.94.44,1.41.44,4.2-.01,8.4-.09,12.59-.11,1.7,0,3.4.1,5.09.61-4.3.36-8.6.72-13.07,1.09-.29,2.2-1.54,2.94-3.28,3.18-3.73.52-7.45,1.2-11.16,1.94-.85.17-1.63.82-2.39,1.55,2.2,1.42,4.55.22,6.74,1.13-4.38,1.82-9.17.7-13.94,2.64,1.43,1.99,2.87,1.09,4.09,1.98-1.68.33-3.37.65-5.04,1-1.81.38-3.62.78-5.42,1.21-1.62.39-3.23.85-4.81,1.86.79.16,1.57.33,2.35.49,0,.17,0,.34.01.51-2.97.2-5.95.39-8.92.62-9.08.69-18.16,1.45-27.25,2.09-8.39.59-16.79,1.04-25.18,1.63-1.35.1-2.68.59-3.7.83-1.23-.22-2.22-.55-3.21-.55-3.41-.01-6.82.08-10.23.15-6.01.12-12.02.25-18.03.4-.47.01-.93.2-1.88.43,2.21,1.79,3.96,3.29,5.78,4.63.47.34,1.19.2,1.79.2,5.78.01,11.55,0,17.33,0h1.89c-.79.6-1.08,1-1.36,1-2.73,0-5.32.88-7.93,1.7-1.25.39-2.57.82-3.65-.76-.18-.27-.82-.21-1.2-.09-4.22,1.4-8.54.74-12.8.82-6.29.11-12.59-.36-18.89-.36-12.95,0-25.9.13-38.85.2-2.36.01-4.73,0-7.09-.06-.54-.02-1.08-.3-1.59-1.09,1.7-.11,3.4-.36,5.09-.3,8.13.31,16.24-.29,24.36-.75,7.59-.43,15.2-.5,22.8-.68,3.03-.07,6.07-.01,9.29-.01.16-2.98,1.55-4.53,4.19-4.54-.35-.1-.69-.28-1.04-.29-5.34-.03-10.68-.03-16.01-.06-4.19-.03-8.44-.69-12.56-.02-5.69.94-11.34.5-17.01.64-10.33.25-20.66.27-30.99.45-12.08.2-24.16.52-36.23.7-11.64.17-23.27.21-34.91.34-9.28.1-18.56.28-27.84.38-2.07.02-4.14-.18-6.64.68.66.8.98,1.53,1.42,1.66.92.27,1.9.29,2.86.32,5.07.15,10.15.27,15.23.42.23,0,.46.19.71.79-1.4.11-2.8.32-4.21.33-7.61.06-15.22.08-22.83.08-4.2,0-8.4.04-12.59-.15-8.83-.38-17.66-.7-26.48-1.41-9.25-.75-18.47-1.99-27.71-2.91-6.28-.63-12.57-1.04-18.86-1.62-2.66-.24-5.31-.67-7.97-1.01,0-.27,0-.54.01-.82,1.13-.03,2.28-.16,3.4-.08,3.57.28,7.14.81,10.72.9,2.45.06,4.91-.47,7.38-.99-9.51-1.88-19.12-2.56-29.25-3.45,2.1-1.41,4-.53,6.06-1.37-1.78-1.78-3.67-.69-5.34-1.56,1.67-.28,3.33-.56,5.6-.94-2.59-1.64-4.79-.74-6.87-1.06-2.1-.32-4.23-.27-6.36-.98,3.07-.12,6.14-.2,9.2-.38,3.14-.19,6.27-.47,9.84-.75-.6-.57-.86-1.04-1.15-1.08-3.21-.4-6.42-.77-9.63-1.06-4.35-.39-8.71-.71-13.07-1.05-1.9-.15-3.82-.24-5.19-3.03,2.39-.28,4.59-.59,6.8-.78,1.66-.14,3.34.06,4.98-.22,2.04-.34,4.21-.2,5.96-2.09.46-.49,1.32-.51,2-.57,7.41-.66,14.83-1.28,22.25-1.92,3.66-.32,7.32-.71,10.98-.93,1.56-.1,3.14.21,4.71.2,1.57-.02,3.14-.13,4.69-.37.48-.07.9-.68,1.29-1.39-3.64-.93-7.25-.99-11.05-.95,1.27-2.3,3.15-2.58,4.99-2.91,1.3-.23,2.61-.33,3.92-.51.68-.09,1.17-.44,1.06-1.44,2.14,1.32,6.56,1.29,8.39-.49-2.79.17-5.59.34-8.38.52ZM87.1,42.92c0,.33,0,.66.01.99,6.8.84,13.62.14,20.59.31-.35-1.96-1.03-2.69-2.44-2.44-1.56.27-3.13.48-4.7.49-3.56.04-7.1,1.29-10.69.12-.83-.27-1.84.33-2.76.53ZM122.83,46.18c0-.3,0-.6,0-.9-2.71-.68-5.41-1.38-8.13-2.01-.41-.1-.92-.03-1.27.21-.33.22-.63.73-.73,1.18-.06.28.23.81.47,1.01.43.35.95.75,1.43.75,2.74-.02,5.48-.15,8.22-.25ZM13.58,81.86c0-.33.01-.66.02-.99-1.44,0-2.89-.08-4.33.02-1.36.1-2.87-.67-4.31.97h8.62Z"/></g></g></g></svg>